<svg width="31" height="30" viewBox="0 0 31 30" fill="none" xmlns="http://www.w3.org/2000/svg">
<path d="M0.625391 14.865C0.62457 17.4849 1.31211 20.0425 2.61922 22.297L0.5 30L8.41848 27.933C10.6003 29.1173 13.0568 29.7417 15.5564 29.7426H15.5628C23.795 29.7426 30.4965 23.0731 30.5 14.8769C30.5014 10.9047 28.9489 7.1694 26.1289 4.35953C23.3086 1.55001 19.5586 0.00163331 15.5628 0C7.32922 0 0.628672 6.66856 0.625391 14.865ZM5.34113 21.9087L5.04547 21.4415C3.80258 19.474 3.14656 17.2005 3.1475 14.8659C3.15008 8.05325 8.7193 2.51063 15.5675 2.51063C18.8839 2.51203 22.0006 3.79907 24.3448 6.13423C26.6889 8.46963 27.9788 11.5741 27.978 14.8759C27.975 21.6886 22.4056 27.2319 15.5628 27.2319H15.5579C13.3298 27.2307 11.1446 26.635 9.23891 25.5093L8.78539 25.2416L4.08641 26.4681L5.34113 21.9087Z" fill="black"/>
<path d="M11.8295 8.65044C11.5499 8.03176 11.2557 8.01928 10.9898 8.00843C10.772 7.9991 10.5231 7.9998 10.2745 7.9998C10.0256 7.9998 9.62114 8.09301 9.27931 8.46459C8.93712 8.83652 7.9729 9.7353 7.9729 11.5633C7.9729 13.3915 9.31036 15.1581 9.49681 15.4063C9.68349 15.6539 12.0788 19.5253 15.8724 21.0147C19.0252 22.2524 19.6668 22.0062 20.3511 21.9442C21.0354 21.8823 22.5593 21.0456 22.8702 20.178C23.1814 19.3104 23.1814 18.5668 23.0881 18.4114C22.9948 18.2566 22.7459 18.1636 22.3727 17.9779C21.9993 17.7921 20.1644 16.8932 19.8223 16.7691C19.4801 16.6452 19.2313 16.5834 18.9824 16.9555C18.7335 17.3269 18.0188 18.1636 17.8009 18.4114C17.5833 18.6598 17.3655 18.6907 16.9924 18.5049C16.6189 18.3184 15.4169 17.9266 13.9908 16.6609C12.8813 15.676 12.1322 14.4598 11.9145 14.0877C11.6968 13.7163 11.8912 13.5149 12.0783 13.3297C12.246 13.1633 12.4517 12.8959 12.6385 12.679C12.8246 12.462 12.8867 12.3072 13.0111 12.0594C13.1357 11.8114 13.0734 11.5944 12.9802 11.4085C12.8867 11.2227 12.1614 9.38508 11.8295 8.65044Z" fill="black"/>
</svg>
