<svg width="31" height="30" viewBox="0 0 31 30" fill="none" xmlns="http://www.w3.org/2000/svg">
<g clip-path="url(#clip0_105_92)">
<path d="M27.6875 0H3.3125C1.76562 0 0.5 1.26562 0.5 2.8125V27.1875C0.5 28.7344 1.76562 30 3.3125 30H27.6875C29.2344 30 30.5 28.7344 30.5 27.1875V2.8125C30.5 1.26562 29.2344 0 27.6875 0ZM11.75 24.375H8V11.25H11.75V24.375ZM9.875 9.375C9.37772 9.375 8.90081 9.17746 8.54918 8.82582C8.19754 8.47419 8 7.99728 8 7.5C8 7.00272 8.19754 6.52581 8.54918 6.17417C8.90081 5.82254 9.37772 5.625 9.875 5.625C10.3723 5.625 10.8492 5.82254 11.2008 6.17417C11.5525 6.52581 11.75 7.00272 11.75 7.5C11.75 7.99728 11.5525 8.47419 11.2008 8.82582C10.8492 9.17746 10.3723 9.375 9.875 9.375ZM24.875 24.375H21.125V16.875C21.125 16.3777 20.9275 15.9008 20.5758 15.5492C20.2242 15.1975 19.7473 15 19.25 15C18.7527 15 18.2758 15.1975 17.9242 15.5492C17.5725 15.9008 17.375 16.3777 17.375 16.875V24.375H13.625V11.25H17.375V13.5769C18.1475 12.5156 19.3325 11.25 20.6562 11.25C22.9888 11.25 24.875 13.3481 24.875 15.9375V24.375Z" fill="black"/>
</g>
<defs>
<clipPath id="clip0_105_92">
<rect width="30" height="30" fill="white" transform="translate(0.5)"/>
</clipPath>
</defs>
</svg>
