<svg width="31" height="30" viewBox="0 0 31 30" fill="none" xmlns="http://www.w3.org/2000/svg">
<path d="M16.785 2.5C18.1912 2.50375 18.905 2.51125 19.5212 2.52875L19.7637 2.5375C20.0437 2.5475 20.32 2.56 20.6537 2.575C21.9837 2.6375 22.8912 2.8475 23.6875 3.15625C24.5125 3.47375 25.2075 3.90375 25.9025 4.5975C26.5381 5.22237 27.0299 5.97824 27.3437 6.8125C27.6525 7.60875 27.8625 8.51625 27.925 9.8475C27.94 10.18 27.9525 10.4563 27.9625 10.7375L27.97 10.98C27.9887 11.595 27.9962 12.3088 27.9987 13.715L28 14.6475V16.285C28.0031 17.1968 27.9935 18.1085 27.9712 19.02L27.9637 19.2625C27.9537 19.5437 27.9412 19.82 27.9262 20.1525C27.8637 21.4837 27.6512 22.39 27.3437 23.1875C27.0308 24.0222 26.5389 24.7783 25.9025 25.4025C25.2774 26.0379 24.5216 26.5297 23.6875 26.8438C22.8912 27.1525 21.9837 27.3625 20.6537 27.425C20.3571 27.439 20.0605 27.4515 19.7637 27.4625L19.5212 27.47C18.905 27.4875 18.1912 27.4963 16.785 27.4988L15.8525 27.5H14.2162C13.3041 27.5031 12.3919 27.4936 11.48 27.4712L11.2375 27.4638C10.9408 27.4525 10.6441 27.4396 10.3475 27.425C9.01749 27.3625 8.10999 27.1525 7.31249 26.8438C6.47833 26.5305 5.72276 26.0386 5.09874 25.4025C4.46255 24.7779 3.97027 24.0219 3.65624 23.1875C3.34749 22.3912 3.13749 21.4837 3.07499 20.1525C3.06106 19.8559 3.04856 19.5592 3.03749 19.2625L3.03124 19.02C3.0082 18.1085 2.99779 17.1968 2.99999 16.285V13.715C2.9965 12.8033 3.00567 11.8915 3.02749 10.98L3.03624 10.7375C3.04624 10.4563 3.05874 10.18 3.07374 9.8475C3.13624 8.51625 3.34624 7.61 3.65499 6.8125C3.96888 5.97738 4.46214 5.22128 5.09999 4.5975C5.72385 3.96184 6.47892 3.46998 7.31249 3.15625C8.10999 2.8475 9.01624 2.6375 10.3475 2.575C10.68 2.56 10.9575 2.5475 11.2375 2.5375L11.48 2.53C12.3915 2.50779 13.3032 2.49821 14.215 2.50125L16.785 2.5ZM15.5 8.75C13.8424 8.75 12.2527 9.40848 11.0806 10.5806C9.90847 11.7527 9.24999 13.3424 9.24999 15C9.24999 16.6576 9.90847 18.2473 11.0806 19.4194C12.2527 20.5915 13.8424 21.25 15.5 21.25C17.1576 21.25 18.7473 20.5915 19.9194 19.4194C21.0915 18.2473 21.75 16.6576 21.75 15C21.75 13.3424 21.0915 11.7527 19.9194 10.5806C18.7473 9.40848 17.1576 8.75 15.5 8.75ZM15.5 11.25C15.9924 11.2499 16.4801 11.3468 16.9351 11.5352C17.3901 11.7236 17.8035 11.9997 18.1518 12.3479C18.5001 12.6961 18.7764 13.1094 18.9649 13.5644C19.1535 14.0193 19.2505 14.5069 19.2506 14.9994C19.2507 15.4918 19.1538 15.9795 18.9654 16.4345C18.777 16.8895 18.5009 17.3029 18.1527 17.6512C17.8045 17.9995 17.3912 18.2758 16.9363 18.4643C16.4813 18.6528 15.9937 18.7499 15.5012 18.75C14.5067 18.75 13.5528 18.3549 12.8496 17.6517C12.1463 16.9484 11.7512 15.9946 11.7512 15C11.7512 14.0054 12.1463 13.0516 12.8496 12.3483C13.5528 11.6451 14.5067 11.25 15.5012 11.25M22.0637 6.875C21.6493 6.875 21.2519 7.03962 20.9589 7.33265C20.6659 7.62567 20.5012 8.0231 20.5012 8.4375C20.5012 8.8519 20.6659 9.24933 20.9589 9.54235C21.2519 9.83538 21.6493 10 22.0637 10C22.4781 10 22.8756 9.83538 23.1686 9.54235C23.4616 9.24933 23.6262 8.8519 23.6262 8.4375C23.6262 8.0231 23.4616 7.62567 23.1686 7.33265C22.8756 7.03962 22.4781 6.875 22.0637 6.875Z" fill="black"/>
</svg>
